<svg width="57" height="56" viewBox="0 0 57 56" fill="none" xmlns="http://www.w3.org/2000/svg"><path d="M.5 35h56V21H.5v14z" fill="#004E96"/><path d="M.5 35h56v-1.4H.5V35z" fill="#FAA619"/><path d="m7.235 24.183-.097 1.023H5.33l-.17 1.421h1.816l-.121 1.033H5.039l-.347 2.79H3.65l.736-6.276 2.849.01zM7.763 24.186l-.711 6.238s3.072.062 3.072-.009c0-.069.105-.988.105-.988H8.172l.208-1.785h2.065l.128-1.041H8.524l.168-1.409h2.058l.12-1.015-3.107.009zM16.18 24.186l-.712 6.238s3.072.062 3.072-.009c0-.069.105-.988.105-.988h-2.058l.21-1.785h2.064l.128-1.041H16.94l.168-1.409h2.057l.12-1.015-3.105.009zM13.133 29.426s-.964.063-1.222.03l.48-4.243.763-.015s1.09 0 1.404 1.4a.223.223 0 0 1 .005.025c.307 1.426-.597 2.686-1.43 2.803zm-.25-5.225-1.396-.007-.706 6.237h1.02v-.005c.217.021 1.443.116 2.208-.33 0 0 1.574-.646 1.559-3.232 0 0-.092-2.374-2.685-2.663zM20.864 25.202s1.015-.186 1.148.436c0 0 .232 1.153-.825 1.306l-.52-.005.197-1.737zm2.211 5.247-1.318-2.683s1.15-.211 1.258-1.837c0 0 .024-1.626-1.584-1.719h-1.5l-.712 6.24h1.051l.291-2.574.14.009L22 30.448h1.075zM25.608 28.108l.833-1.592.403 1.6-1.236-.008zm1.823 2.341h1.08l-1.814-6.28-3.496 6.27h1.187l.694-1.327h2.013l.337 1.337zM39.61 28.108l.833-1.592.403 1.6-1.236-.008zm1.824 2.341h1.08l-1.815-6.28-3.496 6.27h1.187l.694-1.327h2.013l.337 1.337zM29.457 24.234l-.731 6.215h2.81l.107-.986h-1.74l.553-5.238-1 .01zM36.191 29.202s-.27.397-1.306.26l-.03.004.214-1.802c.173-.014.58-.036.718.052 0 0 1.015.25.404 1.486zm-.809-4.105s.632-.045.861.33c0 0 .446.873-.508 1.28l-.556.033.183-1.54.02-.102zm1.266 2.086s.839-.714.62-1.654c0 0-.102-1.202-1.523-1.327h-1.369l-.705 6.235h1.068s.171-.003.52 0c0 0 1.378.012 1.845-.77 0 0 .912-1.372-.456-2.484zM43.803 24.148 42.9 30.44h1l.54-4.06 3.393 4.035.858-6.237h-1.073l-.44 3.75-3.375-3.779zM53.35 24.177H52.16l-2.003 2.19.25-2.19-1.074-.012-.72 6.284h1.075l.286-2.494.17-.189 1.86 2.66h1.22l-2.306-3.527 2.43-2.722z" fill="#fff"/></svg>